Coordinates
version=1
nRows=38
nColumns=12
inDegrees=yes

Units are S.I. units (second, meters, Newtons, ...)
Angles are in degrees

endheader
time	SC_y	SC_z	SC_x	AC_y	AC_z	AC_x	GH_y	GH_z	GH_yy	EL_x	PS_y
       0.0              -39.54          33.81          12.42          65.18         -9.066          18.39          3.481          46.19         -42.06          120.0          11.64
   0.01174              -39.53           33.8          12.43          65.18         -9.066          18.39          3.506          46.19         -42.05          120.0          11.66
   0.02348              -39.53           33.8          12.43          65.17         -9.066          18.38          3.532          46.19         -42.02          120.0          11.67
   0.03522              -39.53           33.8          12.44          65.17         -9.065          18.38           3.56           46.2          -42.0          120.0          11.69
   0.04696              -39.53          33.79          12.44          65.16         -9.065          18.38          3.589           46.2         -41.98          120.0           11.7
    0.0587              -39.53          33.79          12.44          65.16         -9.064          18.38          3.621           46.2         -41.95          120.0          11.72
   0.07044              -39.52          33.78          12.45          65.15         -9.064          18.38          3.654          46.21         -41.93          120.0          11.74
   0.08218              -39.52          33.77          12.46          65.15         -9.063          18.37          3.691          46.21          -41.9          120.0          11.76
   0.09392              -39.52          33.77          12.46          65.14         -9.062          18.37          3.729          46.22         -41.87          119.9          11.78
    0.1057              -39.51          33.76          12.47          65.13         -9.062          18.37           3.77          46.23         -41.84          119.9           11.8
    0.1174              -39.51          33.75          12.47          65.12         -9.061          18.36          3.815          46.23          -41.8          119.9          11.83
    0.1291              -39.51          33.75          12.48          65.12          -9.06          18.36          3.863          46.24         -41.76          119.9          11.85
    0.1409               -39.5          33.74          12.49          65.11         -9.059          18.36          3.914          46.25         -41.72          119.9          11.88
    0.1526               -39.5          33.73           12.5           65.1         -9.059          18.35           3.97          46.25         -41.68          119.8          11.91
    0.1644               -39.5          33.72          12.51          65.09         -9.058          18.35           4.03          46.26         -41.63          119.8          11.94
    0.1761              -39.49          33.71          12.52          65.08         -9.057          18.34          4.096          46.27         -41.58          119.8          11.98
    0.1878              -39.49           33.7          12.53          65.06         -9.055          18.34          4.167          46.28         -41.53          119.8          12.02
    0.1996              -39.48          33.68          12.54          65.05         -9.054          18.33          4.244          46.29         -41.46          119.7          12.06
    0.2113              -39.47          33.67          12.55          65.04         -9.053          18.32          4.329           46.3          -41.4          119.7          12.11
    0.2231              -39.47          33.65          12.57          65.02         -9.051          18.32          4.421          46.32         -41.33          119.7          12.16
    0.2348              -39.46          33.64          12.58           65.0          -9.05          18.31          4.523          46.33         -41.25          119.6          12.21
    0.2465              -39.45          33.62           12.6          64.99         -9.048           18.3          4.634          46.35         -41.16          119.6          12.27
    0.2583              -39.44           33.6          12.62          64.96         -9.046          18.29          4.758          46.36         -41.06          119.5          12.34
      0.27              -39.43          33.58          12.64          64.94         -9.044          18.28          4.895          46.38         -40.95          119.5          12.42
    0.2818              -39.42          33.55          12.67          64.92         -9.041          18.27          5.047          46.41         -40.83          119.4           12.5
    0.2935              -39.41          33.52          12.69          64.89         -9.038          18.26          5.217          46.43          -40.7          119.3          12.59
    0.3052              -39.39          33.49          12.72          64.85         -9.035          18.24          5.407          46.46         -40.55          119.3           12.7
     0.317              -39.38          33.46          12.76          64.82         -9.032          18.23          5.621          46.49         -40.38          119.2          12.81
    0.3287              -39.36          33.42          12.79          64.78         -9.028          18.21          5.862          46.52         -40.19          119.1          12.94
    0.3405              -39.34          33.37          12.84          64.73         -9.024          18.19          6.137          46.56         -39.98          119.0           13.1
    0.3522              -39.32          33.32          12.88          64.68         -9.019          18.16           6.45           46.6         -39.73          118.8          13.27
    0.3639              -39.29          33.26          12.94          64.62         -9.013          18.14          6.809          46.65         -39.45          118.7          13.46
    0.3757              -39.26          33.19           13.0          64.55         -9.006          18.11          7.224          46.71         -39.12          118.5          13.69
    0.3874              -39.22          33.11          13.08          64.47         -8.998          18.07          7.706          46.78         -38.74          118.3          13.95
    0.3992              -39.18          33.02          13.17          64.37         -8.989          18.03          8.271          46.86          -38.3          118.1          14.26
    0.4109              -39.13          32.91          13.27          64.26         -8.978          17.98          8.936          46.95         -37.77          117.8          14.63
    0.4226              -39.08          32.78          13.39          64.12         -8.966          17.92          9.726          47.06         -37.15          117.5          15.06
    0.4344              -39.01          32.63          13.54          63.96          -8.95          17.85          10.67           47.2         -36.41          117.1          15.58
